# AST/ASF file generated using VICON BodyLanguage
# -----------------------------------------------
:version 1.10
:name VICON
:units
  mass 1.0
  length 0.45
  angle deg
:documentation
   .ast/.asf automatically generated from VICON data using
   VICON BodyBuilder and BodyLanguage model FoxedUp or BRILLIANT.MOD
:root
   order TX TY TZ RX RY RZ
   axis XYZ
   position 0 0 0  
   orientation 0 0 0 
:bonedata
  begin
     id 1 
     name lhipjoint
     direction 0.573633 -0.743009 0.344793 
     length 2.46257 
     axis 0 0 0  XYZ
  end
  begin
     id 2 
     name lfemur
     direction 0.34202 -0.939693 0  
     length 7.3842  
     axis 0 0 20  XYZ
    dof rx ry rz
    limits (-160.0 20.0)
           (-70.0 70.0)
           (-60.0 70.0)
  end
  begin
     id 3 
     name ltibia
     direction 0.34202 -0.939693 0   
     length 7.50407   
     axis 0 0 20   XYZ
    dof rx
    limits (-10.0 170.0)
  end
  begin
     id 4 
     name lfoot
     direction 0.110749 -0.304281 0.946123   
     length 1.95925   
     axis -90 7.62852e-016 20   XYZ
    dof rx rz
    limits (-45.0 90.0)
           (-70.0 20.0)
  end
  begin
     id 5 
     name ltoes
     direction 1.53554e-011 -4.21843e-011 1   
     length 0.978318   
     axis -90 7.62852e-016 20   XYZ
    dof rx
    limits (-90.0 20.0)
  end
  begin
     id 6 
     name rhipjoint
     direction -0.488109 -0.791693 0.367385   
     length 2.31113  
     axis 0 0 0  XYZ 
  end
  begin
     id 7 
     name rfemur
     direction -0.34202 -0.939693 0   
     length 7.40965   
     axis 0 0 -20   XYZ
    dof rx ry rz
    limits (-160.0 20.0)
           (-70.0 70.0)
           (-70.0 60.0)
  end
  begin
     id 8 
     name rtibia
     direction -0.34202 -0.939693 0   
     length 7.55548   
     axis 0 0 -20   XYZ
    dof rx
    limits (-10.0 170.0)
 end
 begin
     id 9 
     name rfoot
     direction -0.127594 -0.350561 0.927808   
     length 2.07199  
     axis -90 -7.62852e-016 -20   XYZ
    dof rx rz
    limits (-45.0 90.0)
           (-20.0 70.0)
  end
  begin
     id 10 
     name rtoes
     direction -1.53542e-011 -4.21909e-011 1   
     length 1.02667   
     axis -90 -7.62852e-016 -20   XYZ
    dof rx
    limits (-90.0 20.0)
  end
  begin
     id 11 
     name lowerback
     direction -0.0103342 0.997298 -0.0727278   
     length 2.02836   
     axis 0 0 0   XYZ
    dof rx ry rz
    limits (-20.0 45.0)
           (-30.0 30.0)
           (-30.0 30.0)
  end
  begin
     id 12 
     name upperback
     direction 0.0171146 0.999786 -0.011606   
     length 2.03179   
     axis 0 0 0   XYZ
    dof rx ry rz
    limits (-20.0 45.0)
           (-30.0 30.0)
           (-30.0 30.0)
  end
  begin
     id 13 
     name thorax
     direction 0.0216927 0.999513 0.0224343   
     length 2.03882   
     axis 0 0 0   XYZ
    dof rx ry rz
    limits (-20.0 45.0)
           (-30.0 30.0)
           (-30.0 30.0)
  end
  begin
     id 14 
     name lowerneck
     direction 0.000989287 0.993907 0.110221   
     length 1.75428   
     axis 0 0 0   XYZ
    dof rx ry rz
    limits (-20.0 45.0)
           (-30.0 30.0)
           (-30.0 30.0)
  end
  begin
     id 15 
     name upperneck
     direction -0.0172474 0.994813 -0.100253   
     length 1.77058   
     axis 0 0 0   XYZ
    dof rx ry rz
    limits (-20.0 45.0)
           (-30.0 30.0)
           (-30.0 30.0)
  end
  begin
     id 16
     name head
     direction -0.00486455 0.99894 -0.0457663  
     length 1.77427  
     axis 0 0 0   XYZ
    dof rx ry rz
    limits (-20.0 45.0)
           (-30.0 30.0)
           (-30.0 30.0)
  end
  begin
     id 17 
     name lclavicle
     direction 0.927314 0.333734 -0.169441  
     length 3.97584  
     axis 0 0 0   XYZ
    dof ry rz
    limits (-20.0 10.0)
           (0.0 20.0)
  end
  begin
     id 18 
     name lhumerus
     direction 1 -4.48965e-011 -3.25313e-028   
     length 4.76468   
     axis 180 -30 -90   XYZ
    dof rx ry rz
    limits (-60.0 90.0)
           (-90.0 90.0)
           (-90.0 90.0)
  end
  begin
     id 19
     name lradius
     direction 1 -4.48969e-011 -2.8465e-028   
     length 3.52712   
     axis -180 -30 -90   XYZ
    dof rx
    limits (-10.0 170.0)
  end
  begin
     id 20
     name lwrist
     direction 1 -4.4896e-011 -7.78665e-028   
     length 1.76356   
     axis 1.91374e-015 90 90   XYZ
    dof ry
    limits (-180.0 0.0)
 end
  begin
     id 21 
     name lhand
     direction 1 -4.48959e-011 -1.55733e-027   
     length 0.859564   
     axis 9.9371e-016 90 90   XYZ
    dof rx rz
    limits (-90.0 90.0)
           (-45.0 45.0)
  end
  begin
     id 22 
     name lfingers
     direction 1 -4.48965e-011 -3.11466e-027   
     length 0.693002   
     axis 1.98742e-015 90 90   XYZ
    dof rx
    limits (0.0 90.0)
  end
  begin
     id 23
     name lthumb
     direction 0.707107 -6.34948e-011 0.707107   
     length 0.995017   
     axis -90 45 2.85299e-015   XYZ
    dof rx rz
    limits (-45.0 45.0)
           (-45.0 45.0)
  end
  begin
     id 24 
     name rclavicle
     direction -0.899388 0.348209 -0.264294   
     length 3.68366  
     axis 0 0 0   XYZ 
    dof ry rz
    limits (-10.0 20.0)
           (-20.0 0.0)
  end
  begin
     id 25 
     name rhumerus
     direction -1 -4.48965e-011 -3.01536e-027  
     length 4.90577   
     axis 180 30 90   XYZ
    dof rx ry rz
    limits (-90.0 60.0)
           (-90.0 90.0)
           (-90.0 90.0)
  end
  begin
     id 26 
     name rradius
     direction -1 -4.48966e-011 3.93291e-027   
     length 3.42692   
     axis -180 30 90   XYZ
    dof rx
    limits (-10.0 170.0)
  end
  begin
     id 27 
     name rwrist
     direction -1 -4.48969e-011 -7.78665e-028   
     length 1.71346   
     axis 1.91374e-015 -90 -90   XYZ
    dof ry
    limits (-180.0 0.0)
  end
  begin
     id 28
     name rhand
     direction -1 -4.48967e-011 -1.55733e-027   
     length 0.740957   
     axis 9.9371e-016 -90 -90   XYZ
    dof rx rz
    limits (-90.0 90.0)
           (-45.0 45.0)
  end
  begin
     id 29
     name rfingers
     direction -1 -4.48949e-011 -3.11466e-027   
     length 0.597378   
     axis 1.98742e-015 -90 -90   XYZ
    dof rx
    limits (0.0 90.0)
  end
  begin
     id 30
     name rthumb
     direction -0.707107 -6.34931e-011 0.707107   
     length 0.857719   
     axis -90 -45 -2.85299e-015   XYZ
    dof rx rz
    limits (-45.0 45.0)
           (-45.0 45.0)
  end
:hierarchy
  begin
    root lhipjoint rhipjoint lowerback
    lhipjoint lfemur
    lfemur ltibia
    ltibia lfoot
    lfoot ltoes
    rhipjoint rfemur
    rfemur rtibia
    rtibia rfoot
    rfoot rtoes
    lowerback upperback
    upperback thorax
    thorax lowerneck lclavicle rclavicle
    lowerneck upperneck
    upperneck head
    lclavicle lhumerus
    lhumerus lradius
    lradius lwrist
    lwrist lhand lthumb
    lhand lfingers
    rclavicle rhumerus
    rhumerus rradius
    rradius rwrist
    rwrist rhand rthumb
    rhand rfingers
  end

#!OML:ASF E:\I on waltz\AllaLogoMonkeySwing\Project 1\Capture day 1\Session 1\Subject1.ASF
:FULLY-SPECIFIED
:DEGREES
64
root -16.0584 17.9149 -25.817 3.73216 33.7305 -4.45599
lowerback 9.2649 -1.11696 -0.389417
upperback 0.785633 -1.30612 4.14869
thorax -4.27513 -0.593534 4.7223
lowerneck -6.94378 -0.662086 -1.59276
upperneck 11.2346 -0.524292 -1.33271
head 4.50661 -0.392221 -0.179668
rclavicle 7.85199e-015 -1.27222e-014
rhumerus -28.0968 -22.4864 -76.1489
rradius 18.6398
rwrist 11.0898
rhand -8.13889 -36.0915
rfingers 7.12502
rthumb 17.7752 -65.2991
lclavicle 7.85199e-015 -1.27222e-014
lhumerus -33.9371 21.196 84.1944
lradius 44.1206
lwrist -18.6755
lhand -0.831641 -18.6526
lfingers 7.12502
lthumb 24.7936 9.76016
rfemur -6.30004 -3.43257 25.5046
rtibia 20.8293
rfoot -26.902 0.0140597
rtoes 11.8554
lfemur -11.3602 1.8918 -13.925
ltibia 32.6566
lfoot -19.4069 6.53061
ltoes -25.1852
65
root -16.0162 17.9041 -25.7391 3.62488 33.4412 -4.76472
lowerback 9.50628 -1.04083 -0.060856
upperback 0.865097 -1.16037 4.25126
thorax -4.34396 -0.525024 4.63107
lowerneck -6.92915 -0.487448 -1.48393
upperneck 10.7132 -0.316287 -1.26676
head 4.82212 -0.276215 -0.185433
rclavicle 4.92986e-014 2.3059e-014
rhumerus -27.8416 -21.9212 -76.5427
rradius 18.7405
rwrist 11.1256
rhand -8.34391 -36.1376
rfingers 7.12502
rthumb 17.5779 -65.363
lclavicle 4.92986e-014 2.3059e-014
lhumerus -33.5996 19.9202 85.174
lradius 45.0094
lwrist -16.2652
lhand -2.27187 -19.1902
lfingers 7.12502
lthumb 23.4126 9.40554
rfemur -6.06512 -3.26825 25.8567
rtibia 20.9102
rfoot -27.4251 0.0286371
rtoes 11.3749
lfemur -13.0943 2.37255 -13.6637
ltibia 35.8243
lfoot -19.1327 6.53596
ltoes -27.2816
66
root -15.9701 17.8963 -25.6515 3.51771 33.2703 -5.08181
lowerback 9.74441 -1.00179 0.268687
upperback 0.92101 -1.05991 4.3809
thorax -4.4305 -0.478311 4.5737
lowerneck -6.77651 -0.385627 -1.55402
upperneck 10.5524 -0.182817 -1.21988
head 4.73126 -0.209189 -0.14736
rclavicle 8.17005e-014 -3.18055e-014
rhumerus -27.6391 -21.5762 -76.8028
rradius 18.8147
rwrist 11.4416
rhand -8.52565 -36.0698
rfingers 7.12502
rthumb 17.403 -65.3107
lclavicle 8.17005e-014 -3.18055e-014
lhumerus -33.3871 18.1425 86.4518
lradius 45.8799
lwrist -11.0079
lhand -4.23637 -19.1202
lfingers 7.12502
lthumb 21.527 9.70352
rfemur -5.71168 -3.10513 26.2455
rtibia 20.8205
rfoot -27.5888 -0.0272759
rtoes 11.4961
lfemur -14.8949 2.67395 -13.3793
ltibia 38.9208
lfoot -19.171 5.8177
ltoes -27.5007
67
root -15.919 17.8908 -25.5553 3.53137 33.1918 -5.178
lowerback 9.9488 -0.949886 0.426522
upperback 1.00732 -0.964782 4.46018
thorax -4.46309 -0.432806 4.55927
lowerneck -6.62137 -0.256192 -1.60455
upperneck 10.2614 -0.0229796 -1.12336
head 4.59225 -0.12483 -0.0944782
rclavicle 3.06128e-014 -3.49861e-014
rhumerus -27.4287 -21.7024 -76.8639
rradius 18.8729
rwrist 12.3379
rhand -8.21513 -35.8079
rfingers 7.12502
rthumb 17.7018 -65.0221
lclavicle 3.06128e-014 -3.49861e-014
lhumerus -33.3857 17.2195 87.2613
lradius 46.8618
lwrist -9.09511
lhand -4.92369 -18.8488
lfingers 7.12502
lthumb 20.8667 10.049
rfemur -5.23475 -2.95101 26.4085
rtibia 20.5307
rfoot -27.4221 0.0496475
rtoes 12.4116
lfemur -16.6865 2.69296 -13.3003
ltibia 41.6809
lfoot -19.5406 4.39679
ltoes -26.9407
68
root -15.8586 17.8905 -25.4585 3.7699 33.1685 -5.05083
lowerback 10.1114 -0.937793 0.467268
upperback 1.0796 -0.940147 4.47338
thorax -4.48051 -0.421174 4.54983
lowerneck -6.72528 -0.0528033 -1.44153
upperneck 10.1778 0.248789 -1.26822
head 4.58251 0.00790187 -0.15615
rclavicle 6.04305e-014 1.66979e-014
rhumerus -27.1607 -21.3123 -77.2635
rradius 19.0579
rwrist 12.2368
rhand -8.57663 -36.0874
rfingers 7.12502
rthumb 17.3539 -65.3327
lclavicle 6.04305e-014 1.66979e-014
lhumerus -33.3489 16.5062 87.6614
lradius 47.6333
lwrist -9.37134
lhand -4.44204 -18.963
lfingers 7.12502
lthumb 21.3294 9.88319
rfemur -4.79768 -2.84313 26.3206
rtibia 20.1776
rfoot -27.3861 0.15503
rtoes 13.5019
lfemur -18.5773 2.55026 -13.5352
ltibia 43.8673
lfoot -19.9486 3.12689
ltoes -28.6587
69
root -15.7894 17.8938 -25.359 4.29689 33.1804 -4.68423
lowerback 10.1923 -0.969134 0.294265
upperback 1.08917 -0.999863 4.46305
thorax -4.50825 -0.447573 4.64796
lowerneck -6.88051 0.125364 -1.33561
upperneck 10.2234 0.504611 -1.48485
head 4.63197 0.125519 -0.233106
rclavicle -5.725e-014 -2.46493e-014
rhumerus -26.9139 -20.8316 -77.696
rradius 19.2236
rwrist 12.2138
rhand -8.72234 -36.4162
rfingers 7.12502
rthumb 17.2137 -65.6737
lclavicle -5.725e-014 -2.46493e-014
lhumerus -33.3977 15.807 88.1837
lradius 48.4549
lwrist -8.26903
lhand -4.41935 -19.0876
lfingers 7.12502
lthumb 21.3512 9.75614
rfemur -4.4614 -2.76804 25.9857
rtibia 19.7866
rfoot -27.7885 0.00630583
rtoes 12.9063
lfemur -20.5415 2.27579 -14.058
ltibia 45.3664
lfoot -20.1345 2.0431
ltoes -31.447
70
root -15.7176 17.8957 -25.2552 4.80018 33.1721 -4.46337
lowerback 10.294 -0.933768 0.272032
upperback 1.07939 -0.95196 4.45971
thorax -4.57866 -0.422396 4.65389
lowerneck -6.90914 0.214661 -1.29296
upperneck 10.0719 0.623262 -1.54276
head 4.58293 0.183598 -0.252714
rclavicle -6.06293e-014 -3.18055e-014
rhumerus -26.7103 -20.5763 -78.0104
rradius 19.3498
rwrist 12.4681
rhand -8.23416 -36.5239
rfingers 7.12502
rthumb 17.6835 -65.7398
lclavicle -6.06293e-014 -3.18055e-014
lhumerus -33.4393 15.4068 88.8401
lradius 48.6241
lwrist -7.2743
lhand -5.35395 -19.4498
lfingers 7.12502
lthumb 20.4533 9.49294
rfemur -4.18608 -2.64075 25.7966
rtibia 19.372
rfoot -28.0953 -0.349275
rtoes 11.8337
lfemur -22.485 2.07347 -14.3683
ltibia 46.1992
lfoot -20.1928 0.910739
ltoes -32.4633
71
root -15.6432 17.8934 -25.1501 5.13534 33.0441 -4.55416
lowerback 10.4804 -0.80464 0.616664
upperback 1.0809 -0.73413 4.45067
thorax -4.70279 -0.31916 4.42252
lowerneck -7.07394 0.247011 -1.23359
upperneck 9.97458 0.660993 -1.54684
head 4.58139 0.20407 -0.262084
rclavicle 8.3092e-014 -3.97569e-014
rhumerus -26.5056 -19.5446 -78.778
rradius 19.6659
rwrist 11.0221
rhand -8.99799 -37.0152
rfingers 7.12502
rthumb 16.9484 -66.2958
lclavicle 8.3092e-014 -3.97569e-014
lhumerus -33.4366 14.267 89.5519
lradius 48.6298
lwrist -6.69696
lhand -6.62233 -19.727
lfingers 7.12502
lthumb 19.234 9.34188
rfemur -3.95552 -2.44457 25.8995
rtibia 19.0019
rfoot -28.2623 -0.687498
rtoes 10.6887
lfemur -24.3955 2.13857 -14.3576
ltibia 46.4659
lfoot -20.3305 0.112508
ltoes -31.6522
72
root -15.5658 17.8878 -25.0348 5.47059 32.8846 -4.58851
lowerback 10.7004 -0.645542 0.870697
upperback 1.09576 -0.484843 4.44798
thorax -4.8302 -0.199196 4.24429
lowerneck -7.33896 0.265143 -1.18727
upperneck 9.95371 0.694994 -1.6445
head 4.62899 0.216163 -0.301225
rclavicle 1.11319e-014 2.06736e-014
rhumerus -26.3709 -18.6982 -79.5214
rradius 20.0462
rwrist 10.1317
rhand -9.59096 -37.2531
rfingers 7.12502
rthumb 16.3775 -66.5816
lclavicle 1.11319e-014 2.06736e-014
lhumerus -33.7553 13.1287 90.1277
lradius 49.7336
lwrist -6.39783
lhand -6.92844 -19.2309
lfingers 7.12502
lthumb 18.9396 9.86701
rfemur -3.63213 -2.14368 25.9811
rtibia 18.6202
rfoot -28.3492 -1.06018
rtoes 10.4664
lfemur -26.1704 2.22101 -14.3834
ltibia 46.2149
lfoot -20.2984 -0.196986
ltoes -30.8971
73
root -15.4868 17.8787 -24.9101 5.89745 32.8211 -4.51511
lowerback 10.9049 -0.524819 0.980478
upperback 1.10431 -0.303472 4.4459
thorax -4.9482 -0.110509 4.15724
lowerneck -7.59701 0.274336 -1.0557
upperneck 9.91951 0.730092 -1.95465
head 4.67232 0.221015 -0.427965
rclavicle 4.27387e-014 -1.74931e-014
rhumerus -26.2509 -17.5368 -80.3805
rradius 20.5881
rwrist 9.28174
rhand -9.61048 -37.4738
rfingers 7.12502
rthumb 16.3587 -66.8039
lclavicle 4.27387e-014 -1.74931e-014
lhumerus -33.8642 12.5557 90.6846
lradius 49.594
lwrist -5.09402
lhand -8.03483 -19.6589
lfingers 7.12502
lthumb 17.8753 9.53956
rfemur -3.33062 -1.83125 26.0124
rtibia 18.3001
rfoot -28.6116 -1.68886
rtoes 9.61513
lfemur -27.9196 2.3382 -14.5119
ltibia 45.409
lfoot -19.9862 0.0582367
ltoes -30.9488
74
root -15.4037 17.8644 -24.7814 6.26126 32.8136 -4.56232
lowerback 11.1184 -0.413843 1.23908
upperback 1.1246 -0.117034 4.42822
thorax -5.05885 -0.02285 3.96701
lowerneck -7.67572 0.255162 -1.05441
upperneck 9.66548 0.708881 -2.04465
head 4.59593 0.207743 -0.45918
rclavicle -1.31198e-014 -5.56597e-015
rhumerus -26.1545 -16.0717 -81.2883
rradius 21.2589
rwrist 8.36872
rhand -8.92547 -37.4394
rfingers 7.12502
rthumb 17.0182 -66.7139
lclavicle -1.31198e-014 -5.56597e-015
lhumerus -33.9984 11.9127 91.0767
lradius 49.535
lwrist -4.45383
lhand -8.54649 -19.7962
lfingers 7.12502
lthumb 17.3829 9.44652
rfemur -3.07143 -1.62855 26.1651
rtibia 18.0842
rfoot -28.8355 -2.28768
rtoes 8.48339
lfemur -29.6193 2.533 -14.5169
ltibia 44.3389
lfoot -19.6708 0.618289
ltoes -31.2676
75
root -15.3129 17.8423 -24.6481 6.53892 32.7986 -4.5912
lowerback 11.4238 -0.295341 1.53317
upperback 1.18756 0.0849776 4.37315
thorax -5.17462 0.0708015 3.71417
lowerneck -7.52892 0.203589 -1.10675
upperneck 9.11351 0.622105 -1.98324
head 4.36384 0.172335 -0.432075
rclavicle -8.90555e-014 2.54444e-014
rhumerus -26.0856 -14.4404 -82.2879
rradius 22.0885
rwrist 8.04992
rhand -8.3321 -38.0493
rfingers 7.12502
rthumb 17.5893 -67.2736
lclavicle -8.90555e-014 2.54444e-014
lhumerus -34.1785 11.5793 91.2053
lradius 49.4769
lwrist -5.06003
lhand -8.26363 -19.7969
lfingers 7.12502
lthumb 17.6552 9.42153
rfemur -2.70809 -1.4236 26.2596
rtibia 17.9174
rfoot -29.0791 -2.57832
rtoes 8.52344
lfemur -31.122 2.58903 -14.492
ltibia 43.0731
lfoot -19.2111 0.918462
ltoes -29.9807
76
root -15.217 17.8097 -24.511 6.88878 32.7579 -4.50432
lowerback 11.7533 -0.21671 1.69513
upperback 1.30424 0.217625 4.32367
thorax -5.24167 0.132475 3.55152
lowerneck -7.60509 0.22119 -1.10385
upperneck 8.64034 0.646317 -2.0988
head 4.20936 0.18271 -0.468149
rclavicle -1.66979e-014 -6.36111e-015
rhumerus -25.8136 -11.2695 -83.7088
rradius 23.0672
rwrist 5.80586
rhand -8.19782 -38.5209
rfingers 7.12502
rthumb 17.7185 -67.7337
lclavicle -1.66979e-014 -6.36111e-015
lhumerus -34.2533 11.2354 91.4918
lradius 49.2013
lwrist -4.14143
lhand -8.81951 -19.8889
lfingers 7.12502
lthumb 17.1202 9.37686
rfemur -2.39617 -1.08398 26.2472
rtibia 17.8509
rfoot -29.3525 -2.83033
rtoes 9.39223
lfemur -32.6339 2.83231 -14.7198
ltibia 41.1087
lfoot -18.1982 1.56701
ltoes -31.0705
77
root -15.1191 17.7692 -24.3647 7.21573 32.7464 -4.52995
lowerback 12.0068 -0.126274 1.88424
upperback 1.4721 0.369087 4.33879
thorax -5.21238 0.203523 3.43625
lowerneck -7.80453 0.210526 -1.14906
upperneck 8.17677 0.646779 -2.28011
head 4.08424 0.176224 -0.519033
rclavicle 6.16232e-015 -1.90833e-014
rhumerus -25.4016 -8.93771 -84.8913
rradius 23.9818
rwrist 4.4195
rhand -8.14568 -38.531
rfingers 7.12502
rthumb 17.7687 -67.7392
lclavicle 6.16232e-015 -1.90833e-014
lhumerus -34.263 11.1094 91.6862
lradius 48.9241
lwrist -4.23058
lhand -8.87999 -19.5703
lfingers 7.12502
lthumb 17.062 9.70042
rfemur -2.13729 -0.559718 26.4333
rtibia 17.8181
rfoot -29.3381 -3.33781
rtoes 10.6814
lfemur -34.1034 2.79949 -14.6183
ltibia 39.4078
lfoot -17.6252 1.4532
ltoes -30.0226
